<svg xmlns="http://www.w3.org/2000/svg" width="86" height="25" viewBox="0 0 103 29.8"
     class="group-focus:drop-shadow-md">
    <defs>
        <linearGradient x1="6.20163643e-15%" y1="50%" x2="100%" y2="43.8%" id=":r7:">
            <stop stop-color="#3FC0B5" offset="0%"></stop>
            <stop stop-color="#339D94" offset="100%"></stop>
        </linearGradient>
    </defs>
    <path d="M80.15 2.24v25.7c0 .34-.29.63-.64.63h-6.2a.64.64 0 0 1-.64-.64v-1.58c-1.58 1.73-4.38 2.86-7.38 2.86-6.84 0-11.27-5.28-11.27-12.5V2.24c0-.36.28-.64.63-.64h6.75c.35 0 .64.28.64.64v13.98c0 3.31 2.07 5.04 5.02 5.04 2.95 0 5.07-2.27 5.07-5.48V2.24c0-.36.28-.64.63-.64h6.75c.35 0 .64.28.64.64M37.29.3c7.97 0 14.42 6.62 14.42 14.72 0 8.1-6.45 14.73-14.42 14.73-7.92 0-14.37-6.62-14.37-14.73C22.92 6.93 29.37.31 37.3.31ZM8.72 0c.23 0 .44.12.55.32L12.02 5l4.87 8.38v14.6c0 .35-.29.64-.64.64H9.31a.64.64 0 0 1-.64-.64V15.02a.64.64 0 0 0-.1-.34L.1.98A.64.64 0 0 1 .64 0ZM37.3 7.97c-3.5 0-6.4 3.16-6.4 7.06 0 3.9 2.9 7.07 6.4 7.07 3.54 0 6.45-3.16 6.45-7.07 0-3.9-2.9-7.06-6.45-7.06ZM24.72.1c.5 0 .8.54.54.97l-6.2 10.06c-.26.41-.86.4-1.1-.01L14.1 4.46a.64.64 0 0 1 0-.64l2-3.4c.1-.2.31-.32.54-.32h8.09Zm78.2 2.5-2.44 6.52a.63.63 0 0 1-.86.35c-.87-.4-1.9-.56-2.89-.56-3 0-5.07 2.22-5.07 5.38v13.64c0 .35-.28.64-.63.64h-6.7a.64.64 0 0 1-.64-.64V2.23c0-.35.29-.63.64-.63h6.16c.35 0 .63.28.63.64v1.33A10.01 10.01 0 0 1 98.06.91c2 0 3.54.44 4.53.87.31.14.45.5.33.81"
          fill="url(#:r7:)" fill-rule="evenodd"></path>
</svg>